<svg data-v-fde0c5aa="" xmlns="http://www.w3.org/2000/svg" viewBox="0 0 300 300" class="font"><!----><defs data-v-fde0c5aa=""><!----></defs><rect data-v-fde0c5aa="" fill="#132554" x="0" y="0" width="300px" height="300px" class="logo-background-square"></rect><defs data-v-fde0c5aa=""><!----></defs><g data-v-fde0c5aa="" id="c811de74-495d-4066-a21e-f024e2743d80" fill="#00A3DD" transform="matrix(3.578399506149338,0,0,3.578399506149338,40,131.46389138570865)"><path d="M2.92 10.50L4.38 10.50L4.38 1.17L7.29 1.17L7.29 0L0 0L0 1.17L2.92 1.17L2.92 10.50ZM8.46 4.67L8.46 4.67L8.46 8.75L8.46 8.75Q8.46 10.65 11.67 10.65L11.67 10.65L11.67 10.65Q14.88 10.65 14.88 8.75L14.88 8.75L14.88 7.88L13.42 7.88L13.42 8.46L13.42 8.46Q13.42 9.48 11.67 9.48L11.67 9.48L11.67 9.48Q9.92 9.48 9.92 8.46L9.92 8.46L9.92 7.29L14.88 7.29L14.88 4.67L14.88 4.67Q14.88 2.77 11.67 2.77L11.67 2.77L11.67 2.77Q8.46 2.77 8.46 4.67ZM13.42 6.13L9.92 6.13L9.92 4.96L9.92 4.96Q9.92 3.94 11.67 3.94L11.67 3.94L11.67 3.94Q13.42 3.94 13.42 4.96L13.42 4.96L13.42 6.13ZM17.65 5.30L17.65 5.30L17.65 4.96L17.65 4.96Q17.65 3.94 19.25 3.94L19.25 3.94L19.25 3.94Q20.85 3.94 20.85 4.96L20.85 4.96L20.85 5.54L22.31 5.54L22.31 4.67L22.31 4.67Q22.31 2.77 19.25 2.77L19.25 2.77L19.25 2.77Q16.19 2.77 16.19 4.67L16.19 4.67L16.19 5.40L16.19 5.40Q16.19 7.17 19.25 7.29L19.25 7.29L19.25 7.29Q21 7.40 21 8.02L21 8.02L21 8.46L21 8.46Q21 9.48 19.25 9.48L19.25 9.48L19.25 9.48Q17.50 9.48 17.50 8.46L17.50 8.46L17.50 7.88L16.04 7.88L16.04 8.75L16.04 8.75Q16.04 10.65 19.25 10.65L19.25 10.65L19.25 10.65Q22.46 10.65 22.46 8.75L22.46 8.75L22.46 7.73L22.46 7.73Q22.46 6.11 19.25 5.98L19.25 5.98L19.25 5.98Q17.65 5.91 17.65 5.30ZM24.44 0.58L25.90 0.58L25.90 2.92L27.36 2.92L27.36 4.08L25.90 4.08L25.90 8.17L25.90 8.17Q25.90 9.33 27.36 9.33L27.36 9.33L27.36 10.50L25.90 10.50L25.90 10.50Q24.44 10.50 24.44 8.75L24.44 8.75L24.44 4.08L23.63 4.08L23.63 2.92L24.44 2.92L24.44 0.58ZM33.48 2.92L33.48 2.92L33.48 2.04L33.48 2.04Q33.48 1.02 35.52 1.02L35.52 1.02L35.52 1.02Q37.57 1.02 37.57 2.04L37.57 2.04L37.57 3.21L39.02 3.21L39.02 1.75L39.02 1.75Q39.02-0.15 35.52-0.15L35.52-0.15L35.52-0.15Q32.02-0.15 32.02 1.75L32.02 1.75L32.02 3.50L32.02 3.50Q32.02 4.96 34.82 5.40L34.82 5.40L36.23 5.61L36.23 5.61Q37.60 5.83 37.57 6.71L37.57 6.71L37.57 8.46L37.57 8.46Q37.57 9.48 35.52 9.48L35.52 9.48L35.52 9.48Q33.48 9.48 33.48 8.46L33.48 8.46L33.48 7.29L32.02 7.29L32.02 8.75L32.02 8.75Q32.02 10.65 35.52 10.65L35.52 10.65L35.52 10.65Q39.02 10.65 39.02 8.75L39.02 8.75L39.02 6.42L39.02 6.42Q39.02 4.67 36.23 4.23L36.23 4.23L34.82 4.01L34.82 4.01Q33.48 3.79 33.48 2.92ZM40.19 10.50L41.65 10.50L41.65 9.22L42.75 7.68L44.46 10.50L46.13 10.50L43.67 6.34L46.03 2.92L44.34 2.92L41.65 6.73L41.65-0.29L40.19-0.29L40.19 10.50ZM48.65 2.92L47.19 2.92L47.19 10.50L48.65 10.50L48.65 2.92ZM48.77 0.66L48.77 0.66L48.77 0.66Q48.77-0.15 47.92-0.15L47.92-0.15L47.92-0.15Q47.07-0.15 47.07 0.66L47.07 0.66L47.07 0.66Q47.07 1.46 47.92 1.46L47.92 1.46L47.92 1.46Q48.77 1.46 48.77 0.66ZM49.82 10.50L51.27 10.50L51.27-0.29L49.82-0.29L49.82 10.50ZM52.44 10.50L53.90 10.50L53.90-0.29L52.44-0.29L52.44 10.50ZM56.67 5.30L56.67 5.30L56.67 4.96L56.67 4.96Q56.67 3.94 58.27 3.94L58.27 3.94L58.27 3.94Q59.88 3.94 59.88 4.96L59.88 4.96L59.88 5.54L61.34 5.54L61.34 4.67L61.34 4.67Q61.34 2.77 58.27 2.77L58.27 2.77L58.27 2.77Q55.21 2.77 55.21 4.67L55.21 4.67L55.21 5.40L55.21 5.40Q55.21 7.17 58.27 7.29L58.27 7.29L58.27 7.29Q60.02 7.40 60.02 8.02L60.02 8.02L60.02 8.46L60.02 8.46Q60.02 9.48 58.27 9.48L58.27 9.48L58.27 9.48Q56.52 9.48 56.52 8.46L56.52 8.46L56.52 7.88L55.07 7.88L55.07 8.75L55.07 8.75Q55.07 10.65 58.27 10.65L58.27 10.65L58.27 10.65Q61.48 10.65 61.48 8.75L61.48 8.75L61.48 7.73L61.48 7.73Q61.48 6.11 58.27 5.98L58.27 5.98L58.27 5.98Q56.67 5.91 56.67 5.30Z"></path></g><!----><!----></svg>